<svg width="53" height="54" viewBox="0 0 53 54" fill="none" xmlns="http://www.w3.org/2000/svg">
<g clip-path="url(#clip0_143_184)">
<path d="M26.5 0C19.3086 0 18.4043 0.03375 15.5787 0.162C12.7531 0.297 10.8286 0.74925 9.1425 1.4175C7.37311 2.0936 5.77084 3.15697 4.44869 4.53263C3.09851 5.87973 2.05483 7.51222 1.39125 9.315C0.735375 11.0295 0.288188 12.9937 0.159 15.8625C0.033125 18.7481 0 19.6661 0 27.0034C0 34.3339 0.033125 35.2519 0.159 38.1308C0.2915 41.0063 0.735375 42.9671 1.39125 44.685C2.07031 46.4602 2.97463 47.9655 4.44869 49.4674C5.91944 50.9692 7.39681 51.894 9.13919 52.5825C10.8286 53.2507 12.7498 53.7064 15.5721 53.838C18.4009 53.9662 19.3019 54 26.5 54C33.6981 54 34.5958 53.9662 37.4246 53.838C40.2436 53.703 42.1748 53.2507 43.8608 52.5825C45.629 51.906 47.2301 50.8426 48.5513 49.4674C50.0254 47.9655 50.9297 46.4602 51.6087 44.685C52.2613 42.9671 52.7085 41.0063 52.841 38.1308C52.9669 35.2519 53 34.3339 53 27C53 19.6661 52.9669 18.7481 52.841 15.8659C52.7085 12.9938 52.2613 11.0295 51.6087 9.315C50.9452 7.51222 49.9015 5.87973 48.5513 4.53263C47.2292 3.15697 45.6269 2.0936 43.8575 1.4175C42.1681 0.74925 40.2402 0.293625 37.4213 0.162C34.5924 0.03375 33.6948 0 26.4934 0H26.5ZM24.1249 4.86675H26.5033C33.5788 4.86675 34.4169 4.89038 37.2093 5.022C39.7931 5.14013 41.1976 5.58225 42.1317 5.95013C43.3672 6.4395 44.2517 7.02675 45.1792 7.97175C46.1067 8.91675 46.6798 9.8145 47.1601 11.0768C47.5244 12.0251 47.9551 13.4561 48.071 16.0886C48.2002 18.9338 48.2267 19.7876 48.2267 26.9933C48.2267 34.1989 48.2002 35.0561 48.071 37.9012C47.9551 40.5337 47.5211 41.9614 47.1601 42.9131C46.7322 44.0839 46.0545 45.1433 45.1759 46.0147C44.2484 46.9597 43.3673 47.5436 42.1284 48.033C41.2009 48.4043 39.7964 48.843 37.2093 48.9645C34.4169 49.0928 33.5788 49.1231 26.5033 49.1231C19.4278 49.1231 18.5864 49.0928 15.794 48.9645C13.2103 48.843 11.8091 48.4043 10.8749 48.033C9.72495 47.5985 8.68404 46.9091 7.82744 46.0147C6.94722 45.1427 6.26834 44.0821 5.83994 42.9097C5.47888 41.9614 5.04494 40.5304 4.929 37.8979C4.80313 35.0528 4.77663 34.1989 4.77663 26.9865C4.77663 19.7741 4.80313 18.927 4.929 16.0819C5.04825 13.4494 5.47888 12.0184 5.84325 11.0666C6.32356 9.80775 6.89994 8.90662 7.82744 7.96162C8.75494 7.01662 9.63606 6.43275 10.8749 5.94338C11.8091 5.57213 13.2103 5.13338 15.794 5.01188C18.2386 4.89713 19.186 4.86338 24.1249 4.86V4.86675ZM40.6477 9.34875C40.2301 9.34875 39.8166 9.43256 39.4308 9.59538C39.0449 9.75821 38.6944 9.99686 38.3991 10.2977C38.1038 10.5986 37.8696 10.9558 37.7097 11.3489C37.5499 11.742 37.4677 12.1633 37.4677 12.5888C37.4677 13.0142 37.5499 13.4355 37.7097 13.8286C37.8696 14.2217 38.1038 14.5789 38.3991 14.8798C38.6944 15.1806 39.0449 15.4193 39.4308 15.5821C39.8166 15.7449 40.2301 15.8288 40.6477 15.8288C41.4911 15.8288 42.2999 15.4874 42.8963 14.8798C43.4927 14.2722 43.8277 13.4481 43.8277 12.5888C43.8277 11.7294 43.4927 10.9053 42.8963 10.2977C42.2999 9.69011 41.4911 9.34875 40.6477 9.34875ZM26.5033 13.1355C24.6982 13.1068 22.9056 13.4443 21.2297 14.1282C19.5539 14.8122 18.0283 15.829 16.7419 17.1194C15.4554 18.4099 14.4338 19.9482 13.7364 21.6448C13.0391 23.3413 12.6799 25.1623 12.6799 27.0017C12.6799 28.841 13.0391 30.662 13.7364 32.3586C14.4338 34.0552 15.4554 35.5935 16.7419 36.8839C18.0283 38.1744 19.5539 39.1912 21.2297 39.8751C22.9056 40.5591 24.6982 40.8966 26.5033 40.8679C30.076 40.8111 33.4835 39.3252 35.9902 36.731C38.497 34.1367 39.902 30.6422 39.902 27.0017C39.902 23.3612 38.497 19.8666 35.9902 17.2724C33.4835 14.6782 30.076 13.1923 26.5033 13.1355ZM26.5033 17.9989C27.6635 17.9989 28.8123 18.2317 29.8841 18.684C30.9559 19.1364 31.9299 19.7994 32.7502 20.6352C33.5706 21.4711 34.2213 22.4634 34.6653 23.5554C35.1092 24.6475 35.3378 25.818 35.3378 27C35.3378 28.182 35.1092 29.3525 34.6653 30.4446C34.2213 31.5366 33.5706 32.5289 32.7502 33.3648C31.9299 34.2006 30.9559 34.8636 29.8841 35.316C28.8123 35.7683 27.6635 36.0011 26.5033 36.0011C24.1603 36.0011 21.9132 35.0528 20.2564 33.3648C18.5996 31.6767 17.6689 29.3872 17.6689 27C17.6689 24.6128 18.5996 22.3233 20.2564 20.6352C21.9132 18.9472 24.1603 17.9989 26.5033 17.9989Z" fill="black"/>
</g>
<defs>
<clipPath id="clip0_143_184">
<rect width="53" height="54" fill="white"/>
</clipPath>
</defs>
</svg>
